<svg width="700" height="1000">
    <style>
        @import url('https://fonts.googleapis.com/css2?family=Just+Another+Hand&display=swap');
    </style>
    
    <!--Baggrunden-->
    <rect width="700" height="1000" style="fill:rgb(235,245,190);stroke-width:3;stroke:rgb(79, 43, 43)" />
    
    <!--Fondamenten-->
    <circle cx="350" cy="1000" r="380" stroke="white" stroke-width="1" fill="black" />
    

<g transform="translate(0,0)">
        <!--De store øverste cirkler-->
    <circle cx="350" cy="300" r="240" fill="black" />
    <circle cx="350" cy="300" r="205" fill="black" stroke="white" stroke-width="5" />
        <!--De fire knapper-->
    <circle cx="310" cy="250" r="25" stroke="white" stroke-width="1" fill="yellow" />
    <circle cx="390" cy="250" r="25" stroke="white" stroke-width="1" fill="yellow" />
    <circle cx="310" cy="330" r="25" stroke="white" stroke-width="1" fill="yellow" />
    <circle cx="390" cy="330" r="25" stroke="white" stroke-width="1" fill="yellow" />
</g>

<g transform="translate(0,0)">
        <!--Snor gennem knap-->
    <path d="M 530 240 q 55 -20 120 30" stroke="black" stroke-width="5" fill="none" />
    <path d="M 000 280 q 75 -110 210 -20" stroke="black" stroke-width="5" fill="none" />
    <path d="M 122 221 q 0 0 65 20" stroke="white" stroke-width="5" fill="none" />
    <path d="M 185 240 q 80 20 105 13" stroke="white" stroke-width="5" fill="none" />
    <path d="M 290 252 q 55 -30 100 -8" stroke="black" stroke-width="5" fill="none" />
    <path d="M 390 244 q 55 30 140 -4" stroke="black" stroke-width="5" fill="none" />
    <path d="M 650 270 q 28 20 60 70" stroke="black" stroke-width="5" fill="none" />
</g>

<g transform="translate(0,0)">
    <!--Taget af huset-->
    <polygon opacity="1" points="468,527 473,525 487,395 415,393 414,450 440,550" style="fill:green;stroke:black;stroke-width:1" />
    <polygon opacity="1" points="414,434 415,386 396,386" style="fill:green;stroke:black;stroke-width:1" />
    <polygon opacity="1" points="380,362 351,300 282,443 298,477 295,478 298,511 319,512" style="fill:green;stroke:black;stroke-width:1" />
    <polygon opacity="1" points="281,442 306,393 257,394" style="fill:green;stroke:black;stroke-width:1" />
    <polygon opacity="1" points="229,337 282,481 298,477" style="fill:green;stroke:black;stroke-width:1" />
    <polygon opacity="1" points="227,333 242,489 281,481" style="fill:green;stroke:black;stroke-width:1" />
    <polygon opacity="1" points="227,346 227,491 242,489" style="fill:green;stroke:black;stroke-width:1" />
    <!--Fronten af huset. Skal være forrest.-->
    <polygon opacity="1" points="440,635 468,527 458,519 382,354 315,510 299,511 293,477 229,491 249,549 209,587 210,591 216,591 235,638" style="fill:black;stroke:black;stroke-width:1" />
    <!--Taget der er i huset-->
    <polygon opacity="1" points="211,586 276,575 325,532 307,534 290,550 284,556 270,558 259,558 248,550" style="fill:green;stroke:black;stroke-width:1" />
    <!--Skorsten-->
    <polygon opacity="1" points="438,476 461,332 430,328 428,466" style="fill:black;stroke:black;stroke-width:1" />
    <g>
        <!--3 Top vindue-->
        <polygon opacity="1" transform="translate(0,0)" points="360,481 360,466 370,466 370,481" style="fill:yellow;stroke:black;stroke-width:1" />
        <polygon opacity="1" transform="translate(17,0)" points="360,481 360,466 370,466 370,481" style="fill:yellow;stroke:black;stroke-width:1" />
        <polygon opacity="1" transform="translate(34,0)" points="360,481 360,466 370,466 370,481" style="fill:yellow;stroke:black;stroke-width:1" />

        <!--3 Bund vindue-->
        <polygon opacity="1" transform="translate(0,20)" points="360,481 360,466 370,466 370,481" style="fill:yellow;stroke:black;stroke-width:1" />
        <polygon opacity="1" transform="translate(17,20)" points="360,481 360,466 370,466 370,481" style="fill:yellow;stroke:black;stroke-width:1" />
        <polygon opacity="1" transform="translate(34,20)" points="360,481 360,466 370,466 370,481" style="fill:yellow;stroke:black;stroke-width:1" />
    </g>

    <g>
        <polygon opacity="1" transform="translate(0,0)" points="372,547 375,547 375,530 372,530" style="fill:yellow;stroke:black;stroke-width:1" />
        <polygon opacity="1" transform="translate(15,0)" points="372,547 375,547 375,530 372,530" style="fill:yellow;stroke:black;stroke-width:1" />
        <polygon opacity="1" transform="translate(35,0)" points="372,547 375,547 375,530 372,530" style="fill:yellow;stroke:black;stroke-width:1" />
    </g>

    <g>
        <!--Alle nederste vinduer-->
        <polygon opacity="1" transform="translate(0,0)" points="375,610 380,610 380,592 375,592" style="fill:yellow;stroke:black;stroke-width:1" />
        <polygon opacity="1" transform="translate(-18,-2)" points="375,610 380,610 380,592 375,592" style="fill:yellow;stroke:black;stroke-width:1" />
        <polygon opacity="1" transform="translate(0,0)" points="328,612 338,612 340,590 326,590" style="fill:yellow;stroke:black;stroke-width:1" />
        <polygon opacity="1" transform="translate(0,0)" points="280,608 285,608 285,590 280,590" style="fill:yellow;stroke:black;stroke-width:1" />
    </g>
    
    <g>
        <!--Vinduer i tårnet|Venstre-->
        <polygon opacity="1" transform="translate(0,0)" points="266,530 271,527 270,517 262,520" style="fill:yellow;stroke:black;stroke-width:1" />
        <polygon opacity="1" transform="translate(-4,-14)" points="266,530 271,527 270,517 262,520" style="fill:yellow;stroke:black;stroke-width:1" />
        <!--Vinduer i tårnet|Højre-->
        <polygon opacity="1" transform="translate(0,0)" points="290,522 293,521 291,511 288,512" style="fill:yellow;stroke:black;stroke-width:1" />
        <polygon opacity="1" transform="translate(-3,-15)" points="292,522 293,521 291,511 288,512" style="fill:yellow;stroke:black;stroke-width:1" />
    </g>

    <g>
        <!--Hullerne i huset tingene-->
        <polygon opacity="1" transform="translate(0,0)" points="232,627 245,623 238,600 230,590 226,591 225,599" style="fill:yellow;stroke:black;stroke-width:1" />
        <polygon opacity="1" transform="translate(17,-4)" points="232,627 245,623 238,600 230,590 226,591 225,599" style="fill:yellow;stroke:black;stroke-width:1" />
   </g>
<!--Alle linjerne-->
    <line x1="286" x2="390" y1="576" y2="576" stroke="white" stroke-width="2" />
    <line x1="336" x2="390" y1="526" y2="576" stroke="white" stroke-width="2" />
    <line x1="336" x2="280" y1="526" y2="576" stroke="white" stroke-width="2" />
    <line x1="210" x2="280" y1="590" y2="576" stroke="white" stroke-width="2" />
    <line x1="314" x2="311" y1="640" y2="626" stroke="white" stroke-width="2" />
    <line x1="318" x2="311" y1="611" y2="626" stroke="white" stroke-width="2" />
    <line x1="318" x2="300" y1="611" y2="614" stroke="white" stroke-width="2" />
    <line x1="264" x2="300" y1="625" y2="614" stroke="white" stroke-width="2" />
    <line x1="356" x2="356" y1="640" y2="622" stroke="white" stroke-width="2" />
    <line x1="350" x2="356" y1="610" y2="622" stroke="white" stroke-width="2" />
    <line x1="350" x2="366" y1="610" y2="617" stroke="white" stroke-width="2" />
    <line x1="378" x2="366" y1="580" y2="617" stroke="white" stroke-width="2" />
    <line x1="343" x2="349" y1="625" y2="585" stroke="white" stroke-width="2" />
    <line x1="323" x2="349" y1="585" y2="585" stroke="white" stroke-width="2" />
    <line x1="323" x2="325" y1="585" y2="622" stroke="white" stroke-width="2" />
    <line x1="398" x2="407" y1="567" y2="569" stroke="white" stroke-width="2" />
    <line x1="418" x2="407" y1="524" y2="569" stroke="white" stroke-width="2" />
    <line x1="418" x2="407" y1="524" y2="520" stroke="white" stroke-width="2" />
    <line x1="380" x2="407" y1="518" y2="520" stroke="white" stroke-width="2" />
    <line x1="380" x2="367" y1="518" y2="524" stroke="white" stroke-width="2" />
    <line x1="445" x2="383" y1="522" y2="372" stroke="white" stroke-width="2" />
    <line x1="320" x2="383" y1="518" y2="372" stroke="white" stroke-width="2" />
    <line x1="439" x2="452" y1="475" y2="342" stroke="white" stroke-width="2" />
    <line x1="459" x2="452" y1="334" y2="342" stroke="white" stroke-width="2" />
    <line x1="430" x2="459" y1="329" y2="334" stroke="white" stroke-width="2" />
    <line x1="430" x2="430" y1="329" y2="339" stroke="white" stroke-width="2" />
    <line x1="436" x2="430" y1="339" y2="339" stroke="white" stroke-width="2" />
    <line x1="436" x2="430" y1="339" y2="460" stroke="white" stroke-width="2" />
    <!--Text-->
    <text x="340" y="800" font-size="100" text-anchor="middle" font-family="Just Another Hand"letter-spacing="17" fill="White">Coraline</text>
    <text x="350" y="840" font-size="30" text-anchor="middle" font-family="Just Another Hand" fill="White">Neil Gaiman</text>
</svg>